<?xml version="1.0" encoding="UTF-8" standalone="no"?>
<!DOCTYPE svg PUBLIC "-//W3C//DTD SVG 1.1//EN" "http://www.w3.org/Graphics/SVG/1.1/DTD/svg11.dtd">
<svg width="100%" height="100%" viewBox="0 0 421 317" version="1.1" xmlns="http://www.w3.org/2000/svg" xmlns:xlink="http://www.w3.org/1999/xlink" xml:space="preserve" xmlns:serif="http://www.serif.com/" style="fill-rule:evenodd;clip-rule:evenodd;">
    <g transform="matrix(1,0,0,1,0,-295.078)">
        <g transform="matrix(1,0,0,1,0,506.88)">
            <rect x="0" y="0" width="105.12" height="105.12" style="fill:rgb(181,0,255);"/>
        </g>
        <g transform="matrix(1,0,0,1,0,296.64)">
            <rect x="0" y="105.12" width="105.12" height="105.12" style="fill:rgb(0,255,89);"/>
        </g>
        <g transform="matrix(1,0,0,1,0,86.4)">
            <rect x="0" y="210.24" width="105.12" height="105.12" style="fill:rgb(0,255,207);"/>
        </g>
        <g transform="matrix(1,0,0,1,0,296.64)">
            <rect x="105.12" y="105.12" width="105.12" height="105.12" style="fill:rgb(102,102,255);"/>
        </g>
        <g transform="matrix(1,0,0,1,0,87.4)">
            <rect x="210.24" y="209.74" width="105.12" height="105.12" style="fill:none;stroke:rgb(0,255,89);stroke-width:1px;"/>
        </g>
        <g transform="matrix(1,0,0,1,0,245.08)">
            <rect x="315.86" y="158.18" width="50.56" height="50.56" style="fill:none;stroke:rgb(102,102,255);stroke-width:1px;"/>
        </g>
        <g transform="matrix(1,0,0,1,0,141.96)">
            <rect x="367.42" y="209.74" width="50.56" height="50.56" style="fill:none;stroke:rgb(0,255,207);stroke-width:1px;"/>
        </g>
        <g transform="matrix(1,0,0,1,0,64.62)">
            <rect x="341.64" y="261.3" width="24.78" height="24.78" style="fill:none;stroke:rgb(102,102,255);stroke-width:1px;"/>
        </g>
        <g transform="matrix(1,0,0,1,0,506.88)">
            <rect x="105.12" y="0" width="105.12" height="105.12" style="fill:rgb(252,82,0);"/>
        </g>
        <g transform="matrix(1,0,0,1,0,506.88)">
            <rect x="210.24" y="0" width="105.12" height="105.12" style="fill:rgb(209,209,207);"/>
        </g>
    </g>
</svg>
