<?xml version="1.0" encoding="UTF-8" standalone="no"?>
<!DOCTYPE svg PUBLIC "-//W3C//DTD SVG 1.1//EN" "http://www.w3.org/Graphics/SVG/1.1/DTD/svg11.dtd">
<svg width="100%" height="100%" viewBox="0 0 69 69" version="1.1" xmlns="http://www.w3.org/2000/svg" xmlns:xlink="http://www.w3.org/1999/xlink" xml:space="preserve" xmlns:serif="http://www.serif.com/" style="fill-rule:evenodd;clip-rule:evenodd;stroke-linejoin:round;stroke-miterlimit:2;">
    <g transform="matrix(1,0,0,1,-1526.86,-421.123)">
        <g transform="matrix(1,0,0,1,891,0)">
            <g transform="matrix(1,0,0,1,644.461,438.325)">
                <path d="M0,-17.202L25.675,-17.202C30.426,-17.202 34.277,-13.351 34.277,-8.601C34.277,-3.851 30.426,0 25.675,0L0,0C-4.75,0 -8.601,-3.851 -8.601,-8.601C-8.601,-13.351 -4.75,-17.202 0,-17.202" style="fill:rgb(20,28,77);fill-rule:nonzero;"/>
            </g>
        </g>
        <g transform="matrix(1,0,0,1,891,0)">
            <g transform="matrix(1,0,0,1,695.812,438.325)">
                <path d="M0,-17.202C4.75,-17.202 8.601,-13.351 8.601,-8.601C8.601,-3.851 4.75,0 0,0L-8.601,0L-8.601,-8.601C-8.601,-13.351 -4.75,-17.202 0,-17.202" style="fill:rgb(0,255,207);fill-rule:nonzero;"/>
            </g>
        </g>
        <g transform="matrix(1,0,0,1,891,0)">
            <g transform="matrix(1,0,0,1,644.461,464.001)">
                <path d="M0,-17.202L51.351,-17.202C56.101,-17.202 59.952,-13.351 59.952,-8.601L59.952,0L0,0C-4.75,0 -8.601,-3.851 -8.601,-8.601C-8.601,-13.351 -4.75,-17.202 0,-17.202" style="fill:rgb(102,102,255);fill-rule:nonzero;"/>
            </g>
        </g>
        <g transform="matrix(1,0,0,1,891,0)">
            <g transform="matrix(1,0,0,1,644.461,489.676)">
                <path d="M0,-17.202C4.75,-17.202 8.601,-13.351 8.601,-8.601L8.601,0L0,0C-4.75,0 -8.601,-3.851 -8.601,-8.601C-8.601,-13.351 -4.75,-17.202 0,-17.202" style="fill:rgb(252,82,0);fill-rule:nonzero;"/>
            </g>
        </g>
        <g transform="matrix(1,0,0,1,891,0)">
            <g transform="matrix(1,0,0,1,670.137,489.676)">
                <path d="M0,-17.202L25.676,-17.202C30.426,-17.202 34.277,-13.351 34.277,-8.601C34.277,-3.851 30.426,0 25.676,0L0,0C-4.75,0 -8.601,-3.851 -8.601,-8.601C-8.601,-13.351 -4.75,-17.202 0,-17.202" style="fill:rgb(20,28,77);fill-rule:nonzero;"/>
            </g>
        </g>
    </g>
</svg>
