<?xml version="1.0" encoding="UTF-8" standalone="no"?>
<!DOCTYPE svg PUBLIC "-//W3C//DTD SVG 1.1//EN" "http://www.w3.org/Graphics/SVG/1.1/DTD/svg11.dtd">
<svg width="100%" height="100%" viewBox="0 0 1500 505" version="1.1" xmlns="http://www.w3.org/2000/svg" xmlns:xlink="http://www.w3.org/1999/xlink" xml:space="preserve" xmlns:serif="http://www.serif.com/" style="fill-rule:evenodd;clip-rule:evenodd;stroke-linejoin:round;stroke-miterlimit:2;">
    <g transform="matrix(4.16667,0,0,4.16667,0,0)">
        <path d="M148.93,30.262L148.93,26.802L152.655,26.802L152.655,6.881L148.93,6.881L148.93,3.421L160.601,3.421L160.601,6.881L156.914,6.881L156.914,26.802L160.601,26.802L160.601,30.262L148.93,30.262Z" style="fill:white;fill-rule:nonzero;"/>
        <path d="M165.656,30.148L165.656,9.657L169.419,9.657L169.534,12.584C170.369,11.025 172.499,9.086 176.072,9.086C181.205,9.086 182.573,12.546 182.573,15.739L182.573,30.148L178.43,30.148L178.43,16.804C178.43,14.637 177.859,12.584 174.589,12.584C171.32,12.584 169.8,15.017 169.8,16.842L169.8,30.148L165.656,30.148Z" style="fill:white;fill-rule:nonzero;"/>
        <path d="M188.427,30.148L188.427,9.657L192.19,9.657L192.304,12.584C193.14,11.025 195.27,9.086 198.843,9.086C203.975,9.086 205.344,12.546 205.344,15.739L205.344,30.148L201.2,30.148L201.2,16.804C201.2,14.637 200.629,12.584 197.359,12.584C194.091,12.584 192.57,15.017 192.57,16.842L192.57,30.148L188.427,30.148Z" style="fill:white;fill-rule:nonzero;"/>
        <path d="M219.219,27.373C222.64,27.373 223.551,25.32 223.551,22.886L223.551,16.879C223.551,14.561 222.677,12.508 219.219,12.508C215.834,12.508 214.694,14.523 214.694,17.032L214.694,22.849C214.694,25.623 215.797,27.373 219.219,27.373ZM218.99,30.794C212.298,30.794 210.551,26.955 210.551,22.924L210.551,17.108C210.551,13.344 212.413,9.01 219.256,9.01C225.985,9.01 227.695,13.154 227.695,16.842L227.695,22.773C227.695,26.498 226.175,30.794 218.99,30.794Z" style="fill:white;fill-rule:nonzero;"/>
        <path d="M236.78,30.148L230.583,11.063L230.583,9.619L234.613,9.619L239.556,26.536L239.859,26.536L244.801,9.619L248.642,9.619L248.642,11.025L242.521,30.148L236.78,30.148Z" style="fill:white;fill-rule:nonzero;"/>
        <path d="M258.031,27.562C260.655,27.562 262.29,25.51 262.29,24.179L262.29,20.985C257.194,21.594 254.837,22.088 254.837,24.065L254.837,25.168C254.837,26.498 255.713,27.562 258.031,27.562ZM263.239,30.148C262.936,29.426 262.669,28.703 262.517,27.981C261.338,29.501 259.17,30.718 256.853,30.718C252.747,30.718 250.808,28.247 250.808,25.814L250.808,24.179C250.808,20.34 253.736,18.971 262.29,18.096L262.29,15.511C262.29,13.648 261.528,12.203 258.601,12.203C256.245,12.203 255.142,13.306 255.142,14.903L255.142,16.424L251.303,16.234L251.303,14.713C251.303,11.253 253.926,9.086 258.905,9.086C264.874,9.086 266.433,12.203 266.433,15.321L266.433,25.206C266.433,26.84 266.624,28.589 266.966,30.148L263.239,30.148Z" style="fill:white;fill-rule:nonzero;"/>
        <path d="M278.672,30.718C273.691,30.718 272.627,28.095 272.627,24.597L272.666,12.964L269.776,12.964L269.776,9.657L272.666,9.657L272.666,4.942L276.809,4.448L276.809,9.657L282.208,9.657L282.208,12.964L276.809,12.964L276.809,24.103C276.809,26.46 277.722,27.258 279.889,27.258L282.55,27.258L282.284,30.414C281.334,30.566 280.041,30.718 278.672,30.718Z" style="fill:white;fill-rule:nonzero;"/>
        <path d="M287.035,30.148L287.035,9.657L291.179,9.657L291.179,30.148L287.035,30.148ZM287.035,5.969L287.035,2.015L291.179,2.015L291.179,5.969L287.035,5.969Z" style="fill:white;fill-rule:nonzero;"/>
        <path d="M305.169,27.373C308.59,27.373 309.501,25.32 309.501,22.886L309.501,16.879C309.501,14.561 308.627,12.508 305.169,12.508C301.784,12.508 300.644,14.523 300.644,17.032L300.644,22.849C300.644,25.623 301.747,27.373 305.169,27.373ZM304.94,30.794C298.248,30.794 296.5,26.955 296.5,22.924L296.5,17.108C296.5,13.344 298.363,9.01 305.206,9.01C311.934,9.01 313.645,13.154 313.645,16.842L313.645,22.773C313.645,26.498 312.125,30.794 304.94,30.794Z" style="fill:white;fill-rule:nonzero;"/>
        <path d="M319.005,30.148L319.005,9.657L322.768,9.657L322.883,12.584C323.718,11.025 325.848,9.086 329.421,9.086C334.553,9.086 335.922,12.546 335.922,15.739L335.922,30.148L331.778,30.148L331.778,16.804C331.778,14.637 331.207,12.584 327.938,12.584C324.669,12.584 323.149,15.017 323.149,16.842L323.149,30.148L319.005,30.148Z" style="fill:white;fill-rule:nonzero;"/>
        <path d="M154.519,51.497L154.519,70.734L159.803,70.734C164.137,70.734 165.885,68.643 165.885,65.107L165.885,56.897C165.885,53.627 164.174,51.536 159.727,51.536L154.519,51.497ZM150.222,74.498L150.222,47.772L159.84,47.772C167.634,47.772 170.258,52.182 170.258,57.01L170.258,65.07C170.258,69.898 167.9,74.498 159.498,74.498L150.222,74.498Z" style="fill:white;fill-rule:nonzero;"/>
        <path d="M179.226,62.066L187.401,62.066L187.401,60.28C187.401,58.227 186.564,56.668 183.56,56.668C180.102,56.668 179.226,58.303 179.226,60.85L179.226,62.066ZM183.447,75.144C176.793,75.144 174.969,71.304 174.969,67.655L174.969,61.041C174.969,56.631 177.44,53.361 183.485,53.361C189.378,53.361 191.392,56.402 191.392,60.85L191.392,65.222L179.226,65.222L179.226,67.465C179.226,69.822 180.177,71.799 183.599,71.799C186.716,71.799 187.516,70.659 187.516,69.137L187.516,68.111L191.316,68.301L191.316,69.137C191.316,72.635 189.112,75.144 183.447,75.144Z" style="fill:white;fill-rule:nonzero;"/>
        <path d="M202.834,75.144C196.789,75.144 195.307,72.292 195.307,69.707L195.307,67.731L199.373,67.54L199.373,68.909C199.373,70.696 200.096,71.723 203.175,71.723C206.103,71.723 206.977,70.393 206.977,68.833C206.977,67.389 206.294,66.704 204.088,66.096L200.515,65.107C196.713,64.043 195.649,61.952 195.649,59.33C195.649,55.565 198.385,53.361 203.366,53.361C208.612,53.361 210.551,55.755 210.551,58.379L210.551,60.507L206.75,60.736L206.75,59.101C206.75,57.542 205.723,56.631 203.29,56.631C200.552,56.631 199.717,57.771 199.717,59.215C199.717,60.85 200.818,61.534 202.682,62.066L206.484,63.13C209.677,64.043 211.046,65.602 211.046,68.301C211.046,72.56 208.574,75.144 202.834,75.144Z" style="fill:white;fill-rule:nonzero;"/>
        <path d="M215.607,74.498L215.607,54.007L219.751,54.007L219.751,74.498L215.607,74.498ZM215.607,50.32L215.607,46.365L219.751,46.365L219.751,50.32L215.607,50.32Z" style="fill:white;fill-rule:nonzero;"/>
        <path d="M233.169,69.707C236.515,69.632 237.997,67.084 237.997,65.754L237.997,60.204C237.997,58.645 236.173,56.744 233.321,56.744C230.356,56.744 229.216,58.608 229.216,60.926L229.216,65.449C229.216,67.655 229.862,69.783 233.169,69.707ZM238.416,54.007L242.141,54.007L242.141,73.282C242.141,77.121 240.203,80.809 233.321,80.809C227.808,80.809 226.251,78.718 225.87,76.057L229.596,75.372C229.899,76.892 230.773,77.539 233.321,77.539C236.896,77.539 237.997,75.867 237.997,73.509L237.997,69.898C236.743,71.913 234.538,73.053 231.762,73.053C226.783,73.053 225.072,69.707 225.072,65.981L225.072,60.888C225.072,57.163 227.125,53.437 232.296,53.437C235.185,53.437 237.084,54.691 238.226,56.174L238.416,54.007Z" style="fill:white;fill-rule:nonzero;"/>
        <path d="M248.146,74.498L248.146,54.007L251.909,54.007L252.023,56.934C252.859,55.375 254.989,53.437 258.562,53.437C263.694,53.437 265.063,56.897 265.063,60.089L265.063,74.498L260.919,74.498L260.919,61.154C260.919,58.986 260.347,56.934 257.078,56.934C253.81,56.934 252.289,59.367 252.289,61.192L252.289,74.498L248.146,74.498Z" style="fill:white;fill-rule:nonzero;"/>
        <path d="M159.347,119.494C151.667,119.494 149.309,115.084 149.309,109.837L149.309,101.474C149.309,96.493 151.743,91.476 159.651,91.476C167.368,91.476 169.118,96.113 169.118,99.688L169.118,101.435L164.859,101.625L164.859,99.688C164.859,97.711 163.984,95.239 159.574,95.239C155.317,95.239 153.682,97.672 153.682,101.093L153.682,109.799C153.682,113.601 155.279,115.731 159.651,115.731C163.871,115.731 164.974,113.335 164.974,111.321L164.974,109L169.231,109.191L169.231,111.548C169.231,114.552 167.596,119.494 159.347,119.494Z" style="fill:white;fill-rule:nonzero;"/>
        <path d="M182.307,116.072C185.729,116.072 186.64,114.02 186.64,111.587L186.64,105.579C186.64,103.26 185.766,101.208 182.307,101.208C178.923,101.208 177.783,103.222 177.783,105.732L177.783,111.548C177.783,114.323 178.886,116.072 182.307,116.072ZM182.078,119.494C175.387,119.494 173.639,115.653 173.639,111.624L173.639,105.808C173.639,102.043 175.501,97.711 182.345,97.711C189.073,97.711 190.784,101.854 190.784,105.542L190.784,111.472C190.784,115.197 189.263,119.494 182.078,119.494Z" style="fill:white;fill-rule:nonzero;"/>
        <path d="M196.144,118.847L196.144,98.356L199.907,98.356L200.021,101.283C200.857,99.725 202.987,97.787 206.56,97.787C211.692,97.787 213.061,101.245 213.061,104.439L213.061,118.847L208.917,118.847L208.917,105.503C208.917,103.336 208.346,101.283 205.076,101.283C201.808,101.283 200.287,103.717 200.287,105.542L200.287,118.847L196.144,118.847Z" style="fill:white;fill-rule:nonzero;"/>
        <path d="M224.996,119.494C218.951,119.494 217.469,116.642 217.469,114.057L217.469,112.08L221.536,111.89L221.536,113.259C221.536,115.045 222.258,116.072 225.338,116.072C228.266,116.072 229.14,114.742 229.14,113.183C229.14,111.738 228.456,111.053 226.251,110.445L222.677,109.457C218.875,108.393 217.811,106.301 217.811,103.678C217.811,99.915 220.548,97.711 225.528,97.711C230.775,97.711 232.713,100.105 232.713,102.728L232.713,104.857L228.913,105.085L228.913,103.45C228.913,101.891 227.886,100.979 225.452,100.979C222.715,100.979 221.879,102.12 221.879,103.565C221.879,105.198 222.981,105.884 224.845,106.416L228.647,107.48C231.839,108.393 233.208,109.952 233.208,112.651C233.208,116.909 230.736,119.494 224.996,119.494Z" style="fill:white;fill-rule:nonzero;"/>
        <path d="M245.79,116.072C249.211,116.072 250.122,114.02 250.122,111.587L250.122,105.579C250.122,103.26 249.248,101.208 245.79,101.208C242.405,101.208 241.265,103.222 241.265,105.732L241.265,111.548C241.265,114.323 242.368,116.072 245.79,116.072ZM245.561,119.494C238.869,119.494 237.122,115.653 237.122,111.624L237.122,105.808C237.122,102.043 238.984,97.711 245.827,97.711C252.556,97.711 254.266,101.854 254.266,105.542L254.266,111.472C254.266,115.197 252.746,119.494 245.561,119.494Z" style="fill:white;fill-rule:nonzero;"/>
        <path d="M259.626,118.847L259.626,98.356L263.389,98.356L263.504,101.588C264.302,99.878 265.937,97.787 269.51,97.787C273.806,97.787 274.908,100.333 274.908,103.526L274.908,105.732L270.765,105.959L270.765,104.59C270.765,102.499 270.157,101.474 268.217,101.474C264.834,101.474 263.77,104.515 263.77,106.264L263.77,118.847L259.626,118.847Z" style="fill:white;fill-rule:nonzero;"/>
        <path d="M286.123,119.418C281.142,119.418 280.078,116.795 280.078,113.297L280.117,101.664L277.227,101.664L277.227,98.356L280.117,98.356L280.117,93.643L284.26,93.148L284.26,98.356L289.659,98.356L289.659,101.664L284.26,101.664L284.26,112.802C284.26,115.16 285.173,115.958 287.34,115.958L290.001,115.958L289.735,119.113C288.785,119.265 287.492,119.418 286.123,119.418Z" style="fill:white;fill-rule:nonzero;"/>
        <path d="M294.485,118.847L294.485,98.356L298.629,98.356L298.629,118.847L294.485,118.847ZM294.485,94.668L294.485,90.715L298.629,90.715L298.629,94.668L294.485,94.668Z" style="fill:white;fill-rule:nonzero;"/>
        <path d="M310.869,119.418C305.773,119.418 304.443,115.958 304.443,112.727L304.443,98.356L308.587,98.356L308.587,111.587C308.587,113.905 309.082,115.731 312.237,115.731C315.43,115.731 316.875,113.373 316.875,111.587L316.875,98.356L321.019,98.356L321.019,118.847L317.331,118.847L317.104,116.3C316.191,117.744 314.214,119.418 310.869,119.418Z" style="fill:white;fill-rule:nonzero;"/>
        <path d="M326.988,118.847L326.988,98.356L330.751,98.356L330.866,101.283C331.701,99.725 333.526,97.787 337.062,97.787C340.369,97.787 342.08,99.497 342.802,101.511C343.981,99.573 345.806,97.787 349.265,97.787C354.094,97.787 355.5,101.245 355.5,104.439L355.5,118.847L351.356,118.847L351.356,105.542C351.356,103.375 350.748,101.321 347.82,101.321C344.665,101.321 343.297,103.907 343.297,105.655L343.297,118.847L339.153,118.847L339.153,105.464C339.153,103.375 338.544,101.321 335.655,101.321C332.538,101.321 331.132,103.907 331.132,105.655L331.132,118.847L326.988,118.847Z" style="fill:white;fill-rule:nonzero;"/>
        <path d="M18.97,3.438L62.166,3.438C70.158,3.438 76.637,9.916 76.637,17.908C76.637,25.9 70.158,32.379 62.166,32.379L18.97,32.379C10.978,32.379 4.5,25.9 4.5,17.908C4.5,9.916 10.978,3.438 18.97,3.438Z" style="fill:white;fill-rule:nonzero;"/>
        <path d="M105.363,3.438C113.355,3.438 119.833,9.916 119.833,17.908C119.833,25.9 113.355,32.379 105.363,32.379L90.892,32.379L90.892,17.908C90.892,9.916 97.371,3.438 105.363,3.438Z" style="fill:rgb(111,199,180);fill-rule:nonzero;"/>
        <path d="M18.97,46.634L105.363,46.634C113.355,46.634 119.833,53.113 119.833,61.104L119.833,75.575L18.97,75.575C10.978,75.575 4.5,69.096 4.5,61.104C4.5,53.113 10.978,46.634 18.97,46.634Z" style="fill:rgb(96,103,175);fill-rule:nonzero;"/>
        <path d="M18.97,89.83C26.962,89.83 33.44,96.309 33.44,104.3L33.44,118.771L18.97,118.771C10.978,118.771 4.5,112.292 4.5,104.3C4.5,96.309 10.978,89.83 18.97,89.83Z" style="fill:rgb(241,85,34);fill-rule:nonzero;"/>
        <path d="M62.166,89.83L105.363,89.83C113.355,89.83 119.833,96.309 119.833,104.3C119.833,112.292 113.355,118.771 105.363,118.771L62.166,118.771C54.174,118.771 47.696,112.292 47.696,104.3C47.696,96.309 54.174,89.83 62.166,89.83Z" style="fill:white;fill-rule:nonzero;"/>
    </g>
</svg>
